<svg width="1600" height="1200" viewBox="0 0 1600 1200" fill="none" xmlns="http://www.w3.org/2000/svg">
  <defs>
    <linearGradient id="g" x1="0" y1="0" x2="1" y2="1">
      <stop offset="0%" stop-color="#38bdf8"/>
      <stop offset="100%" stop-color="#0ea5e9"/>
    </linearGradient>
  </defs>
  <rect width="1600" height="1200" fill="#0b1220"/>
  <g opacity="0.2">
    <circle cx="400" cy="300" r="220" fill="url(#g)"/>
    <circle cx="1200" cy="800" r="260" fill="url(#g)"/>
  </g>
  <rect x="120" y="140" width="1360" height="920" rx="24" fill="#0f172a" stroke="#1f2a44"/>
  <rect x="200" y="240" width="600" height="48" rx="8" fill="#15213a"/>
  <rect x="200" y="312" width="420" height="16" rx="8" fill="#203054"/>
  <rect x="200" y="352" width="520" height="16" rx="8" fill="#203054"/>
  <rect x="200" y="392" width="460" height="16" rx="8" fill="#203054"/>
  <rect x="200" y="472" width="560" height="280" rx="16" fill="#15213a"/>
  <rect x="840" y="240" width="560" height="512" rx="16" fill="#15213a"/>
  <rect x="840" y="784" width="560" height="88" rx="12" fill="#38bdf8"/>
  <rect x="200" y="784" width="220" height="88" rx="12" fill="#0ea5e9"/>
  <rect x="440" y="784" width="320" height="88" rx="12" fill="#22c55e"/>
</svg>




