<svg width="139" height="57" viewBox="0 0 139 57" fill="none" xmlns="http://www.w3.org/2000/svg">
<rect x="50.2188" y="32" width="5.0625" height="13.5" fill="#017399"/>
<rect x="59.5" y="36.2188" width="5.0625" height="13.5" transform="rotate(90 59.5 36.2188)" fill="#017399"/>
<path d="M0.27 24.5L7.047 5.924H13.986L20.763 24.5H14.445L13.662 21.881H7.155L6.372 24.5H0.27ZM8.397 17.723H12.447L11.556 14.753C11.484 14.537 11.403 14.276 11.313 13.97C11.223 13.664 11.133 13.34 11.043 12.998C10.953 12.656 10.863 12.323 10.773 11.999C10.683 11.657 10.602 11.36 10.53 11.108H10.314C10.242 11.432 10.143 11.801 10.017 12.215C9.909 12.629 9.792 13.061 9.666 13.511C9.54 13.943 9.414 14.357 9.288 14.753L8.397 17.723ZM29.7483 24.824C26.6523 24.824 24.3303 24.014 22.7823 22.394C21.2523 20.774 20.4873 18.38 20.4873 15.212C20.4873 13.088 20.8833 11.315 21.6753 9.893C22.4673 8.471 23.6193 7.4 25.1313 6.68C26.6433 5.96 28.4703 5.6 30.6123 5.6C31.9083 5.6 33.1233 5.753 34.2573 6.059C35.4093 6.347 36.4173 6.788 37.2813 7.382C38.1633 7.958 38.8473 8.687 39.3333 9.569C39.8193 10.451 40.0623 11.477 40.0623 12.647H34.3653C34.3653 12.251 34.2663 11.891 34.0683 11.567C33.8883 11.243 33.6363 10.973 33.3123 10.757C32.9883 10.523 32.6103 10.352 32.1783 10.244C31.7643 10.118 31.3233 10.055 30.8553 10.055C30.1533 10.055 29.5323 10.154 28.9923 10.352C28.4523 10.532 28.0023 10.811 27.6423 11.189C27.3003 11.567 27.0393 12.017 26.8593 12.539C26.6793 13.061 26.5893 13.664 26.5893 14.348V16.076C26.5893 16.976 26.7423 17.75 27.0483 18.398C27.3723 19.028 27.8493 19.514 28.4793 19.856C29.1273 20.198 29.9193 20.369 30.8553 20.369C31.4853 20.369 32.0613 20.279 32.5833 20.099C33.1233 19.901 33.5553 19.622 33.8793 19.262C34.2033 18.902 34.3653 18.488 34.3653 18.02V17.912H30.1533V14.132H40.0623V24.5H36.9843L36.3903 22.664C35.8323 23.132 35.2203 23.528 34.5543 23.852C33.8883 24.176 33.1593 24.419 32.3673 24.581C31.5753 24.743 30.7023 24.824 29.7483 24.824ZM46.1831 24.5V5.924H52.1501V12.701H58.7111V5.924H64.6781V24.5H58.7111V17.453H52.1501V24.5H46.1831ZM74.7763 24.824C73.0663 24.824 71.5813 24.563 70.3213 24.041C69.0793 23.501 68.1163 22.682 67.4323 21.584C66.7663 20.486 66.4333 19.082 66.4333 17.372C66.4333 15.698 66.7663 14.312 67.4323 13.214C68.0983 12.116 69.0253 11.297 70.2133 10.757C71.4193 10.199 72.8323 9.92 74.4523 9.92C76.1623 9.92 77.6113 10.19 78.7993 10.73C80.0053 11.252 80.9233 12.062 81.5533 13.16C82.1833 14.258 82.4983 15.662 82.4983 17.372V18.29H71.8063C71.8063 18.938 71.8963 19.496 72.0763 19.964C72.2743 20.432 72.5803 20.792 72.9943 21.044C73.4263 21.278 73.9843 21.395 74.6683 21.395C75.1543 21.395 75.5593 21.341 75.8833 21.233C76.2253 21.125 76.4953 20.981 76.6933 20.801C76.9093 20.603 77.0623 20.378 77.1523 20.126C77.2423 19.874 77.2873 19.604 77.2873 19.316H82.4983C82.4983 20.162 82.3363 20.927 82.0123 21.611C81.6883 22.295 81.2023 22.88 80.5543 23.366C79.9063 23.834 79.0963 24.194 78.1243 24.446C77.1703 24.698 76.0543 24.824 74.7763 24.824ZM71.8333 15.752H77.0713C77.0713 15.374 77.0173 15.041 76.9093 14.753C76.8013 14.447 76.6393 14.195 76.4233 13.997C76.2253 13.781 75.9733 13.619 75.6673 13.511C75.3793 13.403 75.0463 13.349 74.6683 13.349C74.0743 13.349 73.5793 13.448 73.1833 13.646C72.7873 13.844 72.4813 14.123 72.2653 14.483C72.0493 14.825 71.9053 15.248 71.8333 15.752ZM88.0871 24.824C87.3491 24.824 86.6741 24.752 86.0621 24.608C85.4501 24.482 84.9191 24.266 84.4691 23.96C84.0191 23.636 83.6681 23.222 83.4161 22.718C83.1821 22.196 83.0651 21.566 83.0651 20.828C83.0651 19.766 83.2811 18.902 83.7131 18.236C84.1631 17.57 84.8111 17.057 85.6571 16.697C86.5031 16.337 87.5291 16.094 88.7351 15.968C89.9591 15.824 91.3541 15.752 92.9201 15.752V15.05C92.9201 14.654 92.8211 14.339 92.6231 14.105C92.4431 13.853 92.2001 13.664 91.8941 13.538C91.5881 13.412 91.2371 13.349 90.8411 13.349C90.5351 13.349 90.2201 13.385 89.8961 13.457C89.5721 13.529 89.3021 13.655 89.0861 13.835C88.8881 14.015 88.7891 14.267 88.7891 14.591V14.699H83.4971C83.4791 14.627 83.4701 14.564 83.4701 14.51C83.4701 14.456 83.4701 14.393 83.4701 14.321C83.4701 13.439 83.7491 12.674 84.3071 12.026C84.8831 11.36 85.7201 10.847 86.8181 10.487C87.9341 10.109 89.3021 9.92 90.9221 9.92C92.2361 9.92 93.4511 10.064 94.5671 10.352C95.6831 10.64 96.5831 11.126 97.2671 11.81C97.9511 12.476 98.2931 13.394 98.2931 14.564V20.126C98.2931 20.414 98.3651 20.666 98.5091 20.882C98.6531 21.08 98.8691 21.179 99.1571 21.179H100.129V24.284C99.9131 24.41 99.5531 24.527 99.0491 24.635C98.5631 24.761 97.9871 24.824 97.3211 24.824C96.6011 24.824 95.9711 24.752 95.4311 24.608C94.8911 24.464 94.4501 24.257 94.1081 23.987C93.7841 23.717 93.5591 23.402 93.4331 23.042H93.2441C92.8661 23.384 92.4251 23.69 91.9211 23.96C91.4351 24.23 90.8771 24.437 90.2471 24.581C89.6171 24.743 88.8971 24.824 88.0871 24.824ZM90.2741 21.476C90.6161 21.476 90.9401 21.431 91.2461 21.341C91.5701 21.233 91.8581 21.098 92.1101 20.936C92.3621 20.756 92.5601 20.549 92.7041 20.315C92.8481 20.063 92.9201 19.793 92.9201 19.505V18.29C91.8581 18.29 90.9941 18.371 90.3281 18.533C89.6801 18.695 89.2031 18.911 88.8971 19.181C88.5911 19.451 88.4381 19.766 88.4381 20.126C88.4381 20.486 88.5281 20.765 88.7081 20.963C88.8881 21.161 89.1131 21.296 89.3831 21.368C89.6711 21.44 89.9681 21.476 90.2741 21.476ZM100.669 24.5V4.925H106.042V24.5H100.669ZM114.124 24.824C113.152 24.824 112.288 24.716 111.532 24.5C110.794 24.266 110.218 23.87 109.804 23.312C109.39 22.754 109.183 21.989 109.183 21.017V13.889H107.185V10.244H109.399L110.56 5.924H114.556V10.244H117.58V13.889H114.556V19.316C114.556 19.928 114.655 20.396 114.853 20.72C115.051 21.026 115.456 21.179 116.068 21.179H117.58V24.338C117.292 24.428 116.932 24.509 116.5 24.581C116.086 24.671 115.663 24.734 115.231 24.77C114.817 24.806 114.448 24.824 114.124 24.824ZM118.858 24.5V4.925H124.231V11.729H124.42C124.726 11.333 125.113 11.009 125.581 10.757C126.049 10.487 126.553 10.28 127.093 10.136C127.633 9.992 128.164 9.92 128.686 9.92C129.82 9.92 130.747 10.136 131.467 10.568C132.205 10.982 132.754 11.585 133.114 12.377C133.474 13.169 133.654 14.132 133.654 15.266V24.5H128.281V15.914C128.281 15.608 128.236 15.338 128.146 15.104C128.074 14.852 127.966 14.636 127.822 14.456C127.678 14.276 127.489 14.141 127.255 14.051C127.039 13.943 126.778 13.889 126.472 13.889C126.022 13.889 125.626 13.997 125.284 14.213C124.96 14.411 124.699 14.681 124.501 15.023C124.321 15.347 124.231 15.716 124.231 16.13V24.5H118.858ZM2.052 51.5V32.978H11.691C13.023 32.978 14.13 33.23 15.012 33.734C15.912 34.22 16.587 34.913 17.037 35.813C17.505 36.695 17.739 37.748 17.739 38.972C17.739 40.196 17.496 41.267 17.01 42.185C16.542 43.085 15.849 43.787 14.931 44.291C14.013 44.795 12.888 45.047 11.556 45.047H6.075V51.5H2.052ZM6.075 41.753H11.016C11.862 41.753 12.51 41.51 12.96 41.024C13.428 40.538 13.662 39.863 13.662 38.999C13.662 38.405 13.563 37.91 13.365 37.514C13.167 37.118 12.87 36.812 12.474 36.596C12.096 36.38 11.61 36.272 11.016 36.272H6.075V41.753ZM18.8909 51.5V37.298H21.9959L22.2929 39.512H22.4819C22.6619 39.044 22.8959 38.621 23.1839 38.243C23.4719 37.847 23.8319 37.532 24.2639 37.298C24.6959 37.064 25.1999 36.947 25.7759 36.947C26.0819 36.947 26.3609 36.983 26.6129 37.055C26.8649 37.109 27.0539 37.163 27.1799 37.217V40.619H26.0189C25.4609 40.619 24.9659 40.7 24.5339 40.862C24.1199 41.006 23.7689 41.24 23.4809 41.564C23.1929 41.888 22.9769 42.284 22.8329 42.752C22.7069 43.22 22.6439 43.769 22.6439 44.399V51.5H18.8909ZM34.2031 51.824C32.6551 51.824 31.3411 51.563 30.2611 51.041C29.1811 50.501 28.3621 49.682 27.8041 48.584C27.2461 47.468 26.9671 46.073 26.9671 44.399C26.9671 42.689 27.2461 41.294 27.8041 40.214C28.3621 39.116 29.1811 38.306 30.2611 37.784C31.3411 37.244 32.6551 36.974 34.2031 36.974C35.7871 36.974 37.1101 37.244 38.1721 37.784C39.2521 38.306 40.0711 39.116 40.6291 40.214C41.1871 41.294 41.4661 42.689 41.4661 44.399C41.4661 46.073 41.1871 47.468 40.6291 48.584C40.0711 49.682 39.2521 50.501 38.1721 51.041C37.1101 51.563 35.7871 51.824 34.2031 51.824ZM34.2031 48.908C35.0311 48.908 35.6881 48.755 36.1741 48.449C36.6781 48.143 37.0471 47.675 37.2811 47.045C37.5151 46.415 37.6321 45.641 37.6321 44.723V44.075C37.6321 43.157 37.5151 42.383 37.2811 41.753C37.0471 41.123 36.6781 40.655 36.1741 40.349C35.6881 40.025 35.0311 39.863 34.2031 39.863C33.3931 39.863 32.7361 40.025 32.2321 40.349C31.7461 40.655 31.3861 41.123 31.1521 41.753C30.9181 42.383 30.8011 43.157 30.8011 44.075V44.723C30.8011 45.641 30.9181 46.415 31.1521 47.045C31.3861 47.675 31.7461 48.143 32.2321 48.449C32.7361 48.755 33.3931 48.908 34.2031 48.908Z" fill="#172048"/>
</svg>


